PathFileType	4	(X/Y/Z)	Walk5.trc
DataRate	CameraRate	NumFrames	NumMarkers	Units	OrigDataRate	OrigDataStartFrame	OrigNumFrames
200.000000	200.000000	5	61	mm	200.000000	650	775
Frame#	Times		RCAR		LTH3		RTH2		LBHD		LCAR		LUA1		LFA1		RTB3		LWRU		LElbow		RToe		RTB2		RMT5		C7		RMT1		RBHD		LWRR		RMMAL		RTB1		RWRU		RFA1		LTH2		RTB4		RLFC		LTH4		RPSI		RLMAL		T10		LASI		RBack		RTH1		STRN		LPSI		LElbowM		LLFC		RElbow		LTB4		RUA1		LTB3		LACR1		LCAL		RTH3		RCAL		RElbowM		LTB1		LToe		CLAV		LMFC		LTB2		RASI		LFHD		RACR1		RTH4		LMT5		RFHD		RWRR		LMMAL		RMFC		LLMAL		LMT1		LTH1
			X1	Y1	Z1	X2	Y2	Z2	X3	Y3	Z3	X4	Y4	Z4	X5	Y5	Z5	X6	Y6	Z6	X7	Y7	Z7	X8	Y8	Z8	X9	Y9	Z9	X10	Y10	Z10	X11	Y11	Z11	X12	Y12	Z12	X13	Y13	Z13	X14	Y14	Z14	X15	Y15	Z15	X16	Y16	Z16	X17	Y17	Z17	X18	Y18	Z18	X19	Y19	Z19	X20	Y20	Z20	X21	Y21	Z21	X22	Y22	Z22	X23	Y23	Z23	X24	Y24	Z24	X25	Y25	Z25	X26	Y26	Z26	X27	Y27	Z27	X28	Y28	Z28	X29	Y29	Z29	X30	Y30	Z30	X31	Y31	Z31	X32	Y32	Z32	X33	Y33	Z33	X34	Y34	Z34	X35	Y35	Z35	X36	Y36	Z36	X37	Y37	Z37	X38	Y38	Z38	X39	Y39	Z39	X40	Y40	Z40	X41	Y41	Z41	X42	Y42	Z42	X43	Y43	Z43	X44	Y44	Z44	X45	Y45	Z45	X46	Y46	Z46	X47	Y47	Z47	X48	Y48	Z48	X49	Y49	Z49	X50	Y50	Z50	X51	Y51	Z51	X52	Y52	Z52	X53	Y53	Z53	X54	Y54	Z54	X55	Y55	Z55	X56	Y56	Z56	X57	Y57	Z57	X58	Y58	Z58	X59	Y59	Z59	X60	Y60	Z60	X61	Y61	Z61

650	3.25	677.86	924.61	263.13	437.68	616.79	-162.74	389.79	689.72	154.91	334.43	1639.4	-66.772	302.94	806.39	-259.03	278.63	1292.2	-247.76	224.1	990.55	-257.88	211.46	188.69	70.812	240.1	856.97	-243.11	225.66	1142.6	-255.8	331.3	27.676	89.929	221.26	273.13	145.69	224.74	25.093	144.27	313.77	1511.9	8.0888	275.51	39.119	65.251	350.05	1642.1	73.86	316.98	861.93	-210.51	171.7	97.396	29.076	276.26	362.9	90.636	611.04	916.72	277.42	524.96	1019.6	306.89	475.55	727.31	-149.19	244.69	275.36	79.574	259.79	497.23	166.59	411.86	705.31	-174.74	201.65	1026.4	70.033	136.92	77.916	109.46	203.38	1291.8	22.111	396.84	1029.6	-129.97	254.01	1426	152.51	347.48	796.55	197.79	483.12	1245.1	-11.864	193.15	1019	-7.4538	203.84	1141.5	-180.98	459.55	522.41	-151.5	434.18	1146.3	310.38	569.04	318.62	-89.403	424.37	1300.8	259.86	588.44	224.26	-94.06	361.19	1461.7	-167.72	543.22	26.405	-88.868	298.84	612.78	175.77	76.622	48.251	60.586	391.99	1117.5	245.3	550.35	406.66	-87.05	774.9	107.84	-111.89	441.74	1419.6	-6.651	475.61	524.79	-20.222	537.63	315.48	-158.83	420.12	1035.3	156.67	515.84	1681.1	-43.141	408.74	1462.2	154.26	326.33	702.73	189.81	693.49	62.793	-168.64	523.29	1681	33.335	640.55	953.88	215.59	606.67	114.5	-58.331	263.17	514.54	34.998	580.56	85.364	-137.16	732.78	90.1	-92.136	387.58	795.43	-181.19
651	3.255	684.58	925.79	261.93	441.32	615.37	-162.91	393.54	689.19	154.9	339.52	1638.8	-67.32	305.62	805.47	-258.94	283.49	1291.6	-248.16	227.82	990.14	-257.98	212.38	188.93	70.803	243.09	856.46	-243.16	230.15	1142.1	-255.98	331.29	27.645	89.91	222.63	273.36	145.72	224.72	25.085	144.24	318.86	1511.2	7.5211	275.54	39.111	65.268	355.15	1641.5	73.31	320	861.01	-210.52	172.08	97.86	29.146	278.21	362.77	90.626	617.81	917.32	276.23	531.08	1019.6	306.09	479.53	725.76	-149.22	246.1	275.37	79.58	262.48	497.29	166.49	415.79	703.99	-174.89	206.65	1025.9	69.415	137.19	78.542	109.51	208.45	1291.2	21.473	402.19	1028.8	-130.22	258.96	1425.4	151.92	351.65	796.23	197.52	488.22	1244.5	-12.2	198.33	1018.4	-8.0344	208.26	1141.3	-181.19	464.2	521.64	-151.17	439.56	1145.7	309.91	576.71	319.29	-88.969	429.47	1300.3	259.4	597.46	225.18	-93.647	366.42	1461.1	-168.27	555.07	26.565	-88.904	302.14	612.73	175.59	76.732	49.19	60.625	397.47	1116.8	244.89	556.7	407.09	-86.569	786.06	110.88	-110.33	446.86	1419	-7.0822	479.55	523.97	-19.562	545.56	315.77	-158.49	425.05	1034.8	156.46	520.93	1680.5	-43.72	413.72	1461.6	153.79	330.03	702.51	189.44	705.51	64.916	-167.8	528.38	1680.4	32.763	647.03	954.91	214.51	617.13	115.61	-57.943	266.17	514.53	34.889	591.89	86.178	-136.95	743.97	92.624	-90.89	391.83	794.21	-181.28
652	3.26	691.15	926.9	260.76	445.14	614.04	-163.1	397.37	688.67	154.91	344.6	1638.1	-67.9	308.41	804.54	-258.87	288.39	1291	-248.6	231.64	989.7	-258.14	213.36	189.19	70.807	246.2	855.95	-243.26	234.72	1141.7	-256.2	331.28	27.613	89.89	224.06	273.61	145.74	224.72	25.083	144.21	323.95	1510.6	6.9212	275.57	39.104	65.29	360.24	1640.9	72.727	323.12	860.1	-210.55	172.5	98.361	29.23	280.26	362.64	90.607	624.44	917.89	275.06	537.1	1019.5	305.29	483.62	724.31	-149.3	247.59	275.38	79.582	265.27	497.35	166.38	419.84	702.74	-175.11	211.7	1025.3	68.77	137.49	79.219	109.58	213.54	1290.6	20.811	407.58	1028.1	-130.48	263.91	1424.8	151.3	355.87	795.92	197.23	493.33	1243.9	-12.549	203.54	1017.7	-8.6441	212.74	1141	-181.45	469.01	520.92	-150.86	444.88	1145.2	309.43	584.11	319.87	-88.509	434.54	1299.7	258.92	606.02	225.98	-93.17	371.65	1460.4	-168.84	566.09	26.717	-88.73	305.54	612.68	175.4	76.856	50.196	60.677	402.89	1116.2	244.46	562.98	407.42	-86.105	796.45	113.52	-108.82	451.98	1418.4	-7.54	483.74	523.31	-18.976	553.19	315.98	-158.12	429.98	1034.4	156.27	526.01	1680	-44.332	418.69	1461	153.3	333.8	702.29	189.08	716.66	66.76	-166.89	533.47	1679.9	32.158	653.39	955.87	213.45	626.93	116.61	-57.451	269.31	514.5	34.771	602.43	86.899	-136.58	754.4	94.826	-89.639	396.13	793.03	-181.44
653	3.265	697.58	927.93	259.62	449.2	612.81	-163.27	401.28	688.16	154.93	349.69	1637.5	-68.516	311.32	803.61	-258.83	293.35	1290.4	-249.08	235.56	989.25	-258.35	214.38	189.46	70.827	249.41	855.42	-243.41	239.36	1141.1	-256.47	331.28	27.581	89.868	225.57	273.88	145.75	224.72	25.086	144.18	329.03	1510.1	6.2895	275.61	39.096	65.317	365.33	1640.3	72.109	326.34	859.19	-210.61	172.94	98.9	29.329	282.4	362.5	90.582	630.93	918.4	273.92	543	1019.4	304.49	487.84	723.02	-149.44	249.15	275.4	79.581	268.19	497.4	166.26	424.06	701.57	-175.4	216.79	1024.7	68.097	137.82	79.948	109.66	218.64	1290	20.126	412.99	1027.4	-130.74	268.85	1424.3	150.63	360.13	795.6	196.93	498.43	1243.4	-12.911	208.76	1017	-9.2819	217.29	1140.6	-181.76	473.97	520.25	-150.57	450.13	1144.6	308.93	591.25	320.32	-88.025	439.58	1299.2	258.41	614.11	226.63	-92.629	376.88	1459.7	-169.44	576.25	26.831	-88.347	309.03	612.62	175.21	76.995	51.271	60.745	408.24	1115.6	243.99	569.19	407.66	-85.656	806.06	115.73	-107.38	457.1	1417.8	-8.0255	488.2	522.81	-18.462	560.5	316.1	-157.7	434.91	1033.9	156.09	531.08	1679.4	-44.976	423.66	1460.4	152.78	337.64	702.08	188.73	726.9	68.279	-165.91	538.55	1679.3	31.521	659.62	956.77	212.42	636.04	117.46	-56.858	272.6	514.45	34.646	612.16	87.489	-136.08	764.04	96.673	-88.396	400.53	791.91	-181.69
654	3.27	703.87	928.88	258.52	453.51	611.72	-163.43	405.26	687.66	154.96	354.77	1636.8	-69.166	314.34	802.68	-258.81	298.35	1289.7	-249.6	239.58	988.79	-258.61	215.45	189.76	70.862	252.74	854.89	-243.62	244.08	1140.6	-256.78	331.28	27.549	89.844	227.15	274.16	145.76	224.74	25.094	144.16	334.12	1509.5	5.6261	275.67	39.09	65.351	370.41	1639.8	71.456	329.66	858.28	-210.69	173.41	99.479	29.444	284.63	362.36	90.55	637.28	918.87	272.79	548.8	1019.3	303.68	492.23	721.89	-149.64	250.78	275.44	79.577	271.22	497.45	166.14	428.46	700.49	-175.75	221.93	1024.2	67.399	138.17	80.728	109.77	223.75	1289.4	19.42	418.44	1026.8	-131.01	273.79	1423.7	149.93	364.45	795.29	196.62	503.54	1242.8	-13.287	214.01	1016.4	-9.9467	221.92	1140.3	-182.13	479.1	519.61	-150.28	455.32	1144.1	308.42	598.12	320.63	-87.513	444.59	1298.7	257.88	621.74	227.1	-92.027	382.11	1459.1	-170.06	585.54	26.881	-87.764	312.62	612.55	175.02	77.15	52.415	60.83	413.53	1115	243.49	575.33	407.79	-85.217	814.9	117.48	-106.02	462.23	1417.2	-8.5394	492.96	522.45	-18.015	567.5	316.11	-157.23	439.85	1033.5	155.91	536.16	1678.8	-45.653	428.63	1459.9	152.24	341.56	701.87	188.39	736.24	69.438	-164.89	543.63	1678.8	30.852	665.74	957.61	211.41	644.47	118.12	-56.168	276.03	514.39	34.515	621.08	87.915	-135.44	772.9	98.139	-87.171	405.04	790.86	-182.03
